<?xml version="1.0" encoding="UTF-8" standalone="no"?>
<!-- Created with Inkscape (http://www.inkscape.org/) -->

<svg
   width="600"
   height="600"
   viewBox="0 0 600 600"
   version="1.1"
   id="svg1"
   xmlns="http://www.w3.org/2000/svg"
   xmlns:svg="http://www.w3.org/2000/svg">
  <defs
     id="defs1" />
  <g
     id="layer1">
    <g
       id="g28"
       transform="scale(5)">
      <rect
         style="display:inline;fill:#edb439;fill-opacity:1;stroke-width:13.0024;stroke-linecap:round;stroke-linejoin:round;stroke-dasharray:39.0073, 39.0073;stroke-opacity:0.3"
         id="rect1"
         width="120"
         height="120"
         x="0"
         y="0" />
      <path
         id="text1"
         style="font-style:normal;font-variant:normal;font-weight:900;font-stretch:normal;font-size:32px;font-family:Inter;-inkscape-font-specification:'Inter Heavy';letter-spacing:0px;word-spacing:0px;fill:#ffffff;stroke-width:5.36364;stroke-linecap:round;stroke-linejoin:round;stroke-dasharray:16.0909, 16.0909;stroke-opacity:0.3"
         d="m 23.908203,24.931641 c -2.090895,0 -3.984678,0.45834 -5.681641,1.375 -1.696955,0.909084 -3.044928,2.254867 -4.044921,4.035156 -0.999993,1.772713 -1.5,3.954027 -1.5,6.544922 0,2.575737 0.489525,4.752914 1.466797,6.533203 0.984841,1.780289 2.320385,3.130215 4.009765,4.046875 1.696956,0.91666 3.613651,1.375 5.75,1.375 1.704532,0 3.202363,-0.262436 4.490235,-0.785156 1.287865,-0.522727 2.367075,-1.212306 3.238281,-2.06836 0.878781,-0.863629 1.555931,-1.803215 2.033203,-2.818359 0.477266,-1.02272 0.75432,-2.026877 0.830078,-3.011719 l -6.408203,-0.04492 c -0.07576,0.5 -0.223669,0.952001 -0.443359,1.353516 -0.212121,0.393933 -0.48917,0.729469 -0.830079,1.009765 -0.340902,0.280303 -0.742957,0.496923 -1.205078,0.648438 -0.462114,0.143939 -0.985032,0.216797 -1.568359,0.216797 -1.02272,0 -1.897734,-0.239525 -2.625,-0.716797 C 20.692656,42.140148 20.136363,41.421337 19.75,40.466799 19.371212,39.504685 19.181641,38.31095 19.181641,36.886721 c 0,-1.348478 0.185434,-2.504683 0.55664,-3.466797 0.378788,-0.962114 0.932885,-1.699693 1.660157,-2.214844 0.734841,-0.515145 1.63276,-0.773437 2.693359,-0.773437 0.606054,0 1.147728,0.08748 1.625,0.261718 0.477266,0.166667 0.881511,0.408381 1.214844,0.726563 0.340902,0.310606 0.605534,0.681469 0.794921,1.113281 0.19697,0.431818 0.31978,0.913063 0.365235,1.443359 H 34.5 C 34.378788,32.5296 34.034972,31.246205 33.466797,30.125 c -0.568181,-1.121205 -1.318189,-2.064933 -2.25,-2.830078 -0.931811,-0.772721 -2.015159,-1.360204 -3.25,-1.761719 -1.234841,-0.401509 -2.588904,-0.601562 -4.058594,-0.601562 z M 68.726562,25.25 v 8.863281 h -0.08984 c -0.227273,-0.590902 -0.560613,-1.132576 -1,-1.625 C 67.197307,31.988288 66.651508,31.590376 66,31.294922 c -0.651509,-0.30303 -1.409802,-0.453125 -2.273438,-0.453125 -1.151501,0 -2.249474,0.306286 -3.294921,0.919922 -1.037872,0.613629 -1.885838,1.57831 -2.544922,2.896484 -0.651515,1.318175 -0.978516,3.030672 -0.978516,5.136719 0,2.015137 0.312382,3.685968 0.933594,5.011719 0.628781,1.325744 1.462128,2.315282 2.5,2.966797 1.045447,0.651508 2.189223,0.976562 3.431641,0.976562 0.818175,0 1.545283,-0.133286 2.18164,-0.398438 0.643933,-0.272721 1.18975,-0.639441 1.636719,-1.101562 0.454539,-0.469696 0.802498,-1.000888 1.044922,-1.591797 h 0.136719 v 2.865235 H 75 V 25.25 Z m -22.863281,5.591797 c -1.893925,0 -3.514804,0.377197 -4.863281,1.134765 -1.348478,0.75 -2.381872,1.804104 -3.101562,3.160157 -0.719697,1.348471 -1.080079,2.917213 -1.080079,4.705078 0,1.787865 0.360382,3.35879 1.080079,4.714844 0.71969,1.348471 1.753084,2.402587 3.101562,3.160156 1.348477,0.749993 2.969356,1.125 4.863281,1.125 1.893926,0 3.51481,-0.375007 4.863281,-1.125 1.348478,-0.757569 2.383826,-1.811685 3.103516,-3.160156 0.71969,-1.356054 1.078125,-2.926979 1.078125,-4.714844 0,-1.787865 -0.358435,-3.356607 -1.078125,-4.705078 -0.71969,-1.356054 -1.755038,-2.410157 -3.103516,-3.160157 -1.348471,-0.757568 -2.969355,-1.134765 -4.863281,-1.134765 z m 40.455078,0 c -1.803016,0 -3.367609,0.375007 -4.693359,1.125 -1.32575,0.749993 -2.352812,1.798013 -3.080078,3.146484 -0.727266,1.348478 -1.089844,2.925499 -1.089844,4.728516 0,1.878774 0.358435,3.491366 1.078125,4.839844 0.727266,1.340895 1.762614,2.3721 3.103516,3.091797 1.348471,0.712114 2.954737,1.068359 4.818359,1.068359 1.613629,0 3.022024,-0.243668 4.226563,-0.728516 1.212108,-0.492418 2.18508,-1.182002 2.919921,-2.068359 C 94.33641,45.150989 94.803031,44.098833 95,42.886719 h -5.726562 c -0.121213,0.325751 -0.310784,0.605001 -0.56836,0.839843 -0.257575,0.227273 -0.568011,0.402226 -0.93164,0.523438 -0.356061,0.121212 -0.749829,0.181641 -1.181641,0.181641 -0.621212,0 -1.152403,-0.125007 -1.591797,-0.375 -0.439394,-0.25 -0.776871,-0.593816 -1.011719,-1.033203 -0.234848,-0.439394 -0.351562,-0.939401 -0.351562,-1.5 V 41.25 H 95 v -1.455078 c 0,-1.386356 -0.204197,-2.632228 -0.613281,-3.738281 -0.409091,-1.106054 -0.992431,-2.045639 -1.75,-2.81836 -0.757569,-0.780296 -1.670113,-1.374112 -2.738281,-1.783203 -1.068175,-0.409084 -2.261904,-0.613281 -3.580079,-0.613281 z M 86.455078,35.25 c 0.522727,0 0.9874,0.110381 1.396484,0.330078 0.416667,0.212121 0.747811,0.510127 0.990235,0.896484 0.25,0.378788 0.377196,0.81836 0.384765,1.31836 h -5.589843 c 0.01515,-0.507575 0.146484,-0.949344 0.396484,-1.328125 0.257576,-0.378788 0.599196,-0.674598 1.023438,-0.886719 C 85.480877,35.360381 85.947509,35.25 86.455078,35.25 Z m -40.546875,0.136719 c 0.530303,0 0.988643,0.177143 1.375,0.533203 0.386363,0.35606 0.686317,0.864353 0.898438,1.523437 0.212115,0.651515 0.318359,1.434903 0.318359,2.351563 0,0.909084 -0.106244,1.694425 -0.318359,2.353516 -0.212121,0.659084 -0.512075,1.165424 -0.898438,1.521484 -0.386357,0.35606 -0.844697,0.535156 -1.375,0.535156 -0.560599,0 -1.039897,-0.179096 -1.441406,-0.535156 -0.401515,-0.35606 -0.709754,-0.8624 -0.921875,-1.521484 -0.212121,-0.659091 -0.31836,-1.444432 -0.31836,-2.353516 0,-0.91666 0.106239,-1.700048 0.31836,-2.351563 0.212121,-0.659084 0.52036,-1.167377 0.921875,-1.523437 0.401509,-0.35606 0.880807,-0.533203 1.441406,-0.533203 z m 20.183594,0.271484 c 0.575751,0 1.067478,0.166667 1.476562,0.5 0.416667,0.325757 0.735382,0.80067 0.955079,1.421875 0.227266,0.613636 0.339843,1.351214 0.339843,2.214844 0,0.848478 -0.112577,1.583872 -0.339843,2.205078 -0.219697,0.61363 -0.538412,1.090732 -0.955079,1.431641 -0.409084,0.333327 -0.900811,0.5 -1.476562,0.5 -0.575757,0 -1.069425,-0.162524 -1.478516,-0.488282 -0.401508,-0.333327 -0.71195,-0.806292 -0.93164,-1.419921 -0.212121,-0.621212 -0.31836,-1.364887 -0.31836,-2.228516 0,-0.86363 0.106239,-1.601208 0.31836,-2.214844 0.21969,-0.621205 0.530132,-1.096118 0.93164,-1.421875 0.409091,-0.333333 0.902759,-0.5 1.478516,-0.5 z M 52.167969,65.765625 c -0.02936,0.03697 -0.05755,0.07514 -0.08789,0.111328 -0.408582,0.487322 -0.962588,0.848951 -1.519531,1.140625 -0.757932,0.366267 -1.562657,0.625351 -2.416016,0.613281 -0.622921,-0.0235 -1.244626,-0.07426 -1.847656,-0.246093 -0.492642,-0.137744 -0.984833,-0.282109 -1.462891,-0.464844 -0.41472,-0.186132 -0.824625,-0.383547 -1.207031,-0.625 6.7e-4,0.04764 8.45e-4,0.09515 0,0.142578 0.02555,0.06502 0.0503,0.120311 0.07617,0.191406 -0.02471,-0.05463 -0.05092,-0.104923 -0.07617,-0.158203 -0.0172,0.612334 -0.193048,1.196789 -0.404297,1.769531 -0.278509,0.683429 -0.720893,1.274901 -1.195312,1.832032 -0.312992,0.31288 -0.607236,0.672327 -0.986328,0.910156 -0.235231,0.147574 -0.480981,0.281718 -0.720704,0.421875 -0.357755,0.178482 -0.744845,0.267667 -1.130859,0.357422 0.02183,-0.0048 0.04823,-0.01079 0.0625,-0.0098 0.0205,0.0015 -0.03879,0.01198 -0.05859,0.01758 -0.05682,0.01593 -0.113254,0.03163 -0.169921,0.04687 -0.01414,0.103174 -0.03906,0.181901 -0.05469,0.263672 0.04523,0.08555 0.07567,0.143243 0.03125,0.05469 0.280237,0.467532 0.4343,0.992828 0.539062,1.523437 0.09093,0.456631 0.08382,0.916129 0.07227,1.378906 -0.04278,0.686941 -0.259417,1.334962 -0.535156,1.958985 -0.220763,0.442258 -0.503118,0.863751 -0.84961,1.220703 v 10.306641 h 10.955079 c 1.68938,0 3.143591,-0.285341 4.363281,-0.853516 1.21969,-0.568181 2.159275,-1.347427 2.818359,-2.339844 0.666666,-0.992417 1,-2.125723 1,-3.398437 0,-1.098478 -0.24172,-2.052676 -0.726562,-2.863282 -0.484856,-0.818169 -1.136903,-1.457807 -1.955078,-1.919921 -0.818181,-0.469697 -1.72657,-0.723841 -2.726563,-0.761719 v -0.228516 c 0.901508,-0.181818 1.689046,-0.506872 2.363281,-0.976562 0.674242,-0.477273 1.197148,-1.068899 1.56836,-1.773438 0.378781,-0.704539 0.568359,-1.483784 0.568359,-2.339844 0,-1.181805 -0.310435,-2.208872 -0.93164,-3.080078 -0.613613,-0.871233 -1.528121,-1.544218 -2.740235,-2.021484 -0.193612,-0.07671 -0.406988,-0.13675 -0.615234,-0.201172 z m 28.013672,1.121094 v 4.18164 h -2.226563 v 4.544922 h 2.226563 V 83.5 c -0.01515,1.21969 0.224373,2.234323 0.716797,3.044922 0.492417,0.810599 1.225859,1.406375 2.203124,1.785156 0.977272,0.371212 2.18562,0.519111 3.625,0.44336 0.712121,-0.03788 1.326652,-0.119023 1.841797,-0.240235 0.522727,-0.121212 0.924776,-0.223307 1.205079,-0.306641 l -0.910157,-4.408203 c -0.121212,0.0303 -0.310784,0.06783 -0.568359,0.113282 -0.25,0.04545 -0.46881,0.06836 -0.658203,0.06836 -0.272727,0 -0.49568,-0.03752 -0.669922,-0.113281 -0.174242,-0.08333 -0.303386,-0.204197 -0.386719,-0.363281 -0.08333,-0.166667 -0.125,-0.372811 -0.125,-0.615235 v -7.294922 h 3 V 71.06836 h -3 v -4.18164 z m -35.636719,3.318359 h 2.68164 c 0.787879,0 1.439928,0.191768 1.955079,0.578125 0.515145,0.378788 0.773437,0.928741 0.773437,1.648438 0,0.477266 -0.120857,0.883464 -0.363281,1.216797 -0.234848,0.325751 -0.565992,0.575757 -0.990235,0.75 -0.424235,0.174236 -0.911819,0.259765 -1.464843,0.259765 h -2.591797 z m 55.499998,0.636719 c -1.803003,0 -3.367607,0.375007 -4.693358,1.125 -1.325744,0.749993 -2.350858,1.798013 -3.078124,3.146484 -0.727272,1.348478 -1.091797,2.925499 -1.091797,4.728516 0,1.878774 0.360381,3.491366 1.080078,4.839844 0.727266,1.340895 1.760667,2.3721 3.101562,3.091797 1.348478,0.712114 2.954737,1.068359 4.818359,1.068359 1.61364,0 3.02202,-0.243668 4.22656,-0.728516 1.21212,-0.492418 2.18703,-1.182002 2.92188,-2.068359 0.73485,-0.893933 1.19951,-1.946089 1.39648,-3.158203 H 103 c -0.12121,0.325751 -0.31078,0.605001 -0.56836,0.839843 -0.25757,0.227273 -0.568,0.402226 -0.93164,0.523438 -0.35606,0.121212 -0.74982,0.181641 -1.18164,0.181641 -0.621212,0 -1.152404,-0.125007 -1.591798,-0.375 -0.439387,-0.25 -0.774917,-0.593816 -1.009765,-1.033203 -0.234848,-0.439394 -0.353516,-0.939401 -0.353516,-1.5 V 81.25 h 11.363279 v -1.455078 c 0,-1.386356 -0.20419,-2.632228 -0.61328,-3.738281 -0.40909,-1.106054 -0.99242,-2.045639 -1.75,-2.81836 -0.75757,-0.780296 -1.6701,-1.374112 -2.73828,-1.783203 -1.06818,-0.409084 -2.2619,-0.613281 -3.58008,-0.613281 z m -41.771482,0.226562 6.134765,18.226563 -0.134765,0.318359 c -0.136364,0.318182 -0.36127,0.534802 -0.671876,0.648438 C 63.298539,90.375355 62.931818,90.404593 62.5,90.351562 62.075758,90.298538 61.606942,90.181818 61.091797,90 l -1.365235,4.455078 c 0.492424,0.189394 1.065289,0.337299 1.716797,0.44336 0.651515,0.11363 1.336951,0.169921 2.056641,0.169921 1.462114,0 2.680937,-0.222958 3.658203,-0.669921 0.977266,-0.44697 1.76675,-1.057352 2.365235,-1.830079 0.606053,-0.765144 1.066584,-1.629676 1.384765,-2.591797 l 6.365235,-18.908203 h -6.591797 l -2.863282,12.089844 h -0.18164 L 64.818359,71.068359 Z M 100.18164,75.25 c 0.52273,0 0.98935,0.110381 1.39844,0.330078 0.41666,0.212121 0.74586,0.510127 0.98828,0.896484 0.25,0.378788 0.37914,0.81836 0.38672,1.31836 h -5.591799 c 0.01515,-0.507575 0.148438,-0.949344 0.398438,-1.328125 0.257569,-0.378788 0.597248,-0.674598 1.021484,-0.886719 C 99.207445,75.360381 99.674071,75.25 100.18164,75.25 Z m -55.636718,3.318359 h 3.046875 c 0.643933,0 1.191945,0.09795 1.646484,0.294922 0.462121,0.19697 0.81836,0.4845 1.06836,0.863281 0.249993,0.378788 0.375,0.841271 0.375,1.386719 0,0.780296 -0.264626,1.371923 -0.794922,1.773438 -0.530303,0.393933 -1.32612,0.589843 -2.386719,0.589843 h -2.955078 z" />
    </g>
  </g>
</svg>
